<?xml version="1.0" encoding="UTF-8" standalone="no"?>
<!-- Created with Inkscape (http://www.inkscape.org/) -->

<svg
   width="210mm"
   height="297mm"
   viewBox="0 0 210 297"
   version="1.1"
   id="svg1"
   xml:space="preserve"
   inkscape:version="1.3 (0e150ed6c4, 2023-07-21)"
   sodipodi:docname="bonhomme.svg"
   xmlns:inkscape="http://www.inkscape.org/namespaces/inkscape"
   xmlns:sodipodi="http://sodipodi.sourceforge.net/DTD/sodipodi-0.dtd"
   xmlns="http://www.w3.org/2000/svg"
   xmlns:svg="http://www.w3.org/2000/svg"><sodipodi:namedview
     id="namedview1"
     pagecolor="#ffffff"
     bordercolor="#000000"
     borderopacity="0.25"
     inkscape:showpageshadow="2"
     inkscape:pageopacity="0.0"
     inkscape:pagecheckerboard="0"
     inkscape:deskcolor="#d1d1d1"
     inkscape:document-units="mm"
     inkscape:zoom="0.50709218"
     inkscape:cx="367.78323"
     inkscape:cy="288.90211"
     inkscape:window-width="1920"
     inkscape:window-height="1011"
     inkscape:window-x="0"
     inkscape:window-y="0"
     inkscape:window-maximized="1"
     inkscape:current-layer="layer1" /><defs
     id="defs1" /><g
     inkscape:label="Layer 1"
     inkscape:groupmode="layer"
     id="layer1"><path
       style="fill:none;stroke:#000000;stroke-width:3.365;stroke-dasharray:none;stroke-linecap:round;paint-order:stroke fill markers;stroke-linejoin:round"
       d="m 185.08333,126.41739 c 0,0 -50.04632,-2.82275 -75.79851,-45.347519 -0.60083,-0.992152 0.19736,-4.032016 0.32474,-5.083038 0.26796,-2.211117 0.35158,-2.372611 1.12321,-7.53811 1.82503,-12.217154 1.15763,-6.971555 1.97965,-15.136301 0,0 8.9469,0.461179 9.2236,-2.398136 0.27671,-2.859318 -15.19154,-24.360352 -31.947232,-23.319889 -16.750022,1.040111 -22.354705,10.821731 -22.296432,22.362732 0.05902,11.689437 5.900589,25.20069 7.572352,35.938555 -0.989653,1.187585 -9.317856,2.764124 -12.470459,4.597494 -7.881189,4.58324 -25.770004,8.575065 -36.115698,21.255572 -12.067753,14.7912 3.133415,26.59034 7.46817,29.68142 4.334756,3.09107 19.008164,12.42551 23.117069,13.86036 3.727157,1.30154 -1.434856,11.3484 -4.695891,10.30487 -3.261037,-1.04353 4.749922,7.12025 11.271993,1.51127 6.522072,-5.60898 1.426626,3.5307 1.043532,12.78326 -0.383094,9.25256 -4.749923,56.53517 -4.489039,56.9265 0.260882,0.39132 44.610975,0.26088 44.610975,0.26088 l 0.39132,-58.04644 -0.13044,58.50298 42.65435,-0.6522 -18.2618,-21.00108 c -0.0597,-8.33982 1.92542,-25.09562 2.20501,-41.8225 0.33725,-20.176 -1.00964,-40.05818 -0.96621,-41.77709 0.18805,-7.44321 -0.20113,-0.0244 0.55708,2.38726 0,0 27.11489,17.87431 52.86839,18.25908 z"
       id="path1"
       inkscape:label="path1"
       sodipodi:nodetypes="cssscssscsszsszzscccccssccc" /><path
       style="fill:none;stroke:#000000;stroke-width:3.365;stroke-linecap:round;stroke-linejoin:round;stroke-dasharray:none;paint-order:stroke fill markers"
       d="m 171.2696,138.5288 c 0,0 9.13091,1.56531 13.04415,2.47839 3.57718,0.83467 -13.04415,-2.47839 -13.04415,-2.47839 z"
       id="path2"
       sodipodi:nodetypes="csc" /><path
       style="fill:none;stroke:#000000;stroke-width:3.365;stroke-linecap:round;stroke-linejoin:round;stroke-dasharray:none;paint-order:stroke fill markers"
       d="m 110.77546,67.332297 c 0,0 -27.614255,3.187283 -30.161176,-23.981366 0,0 0.147526,25.257367 30.161176,23.981366 z"
       id="path3"
       sodipodi:nodetypes="csc" /><circle
       style="fill:#000000;stroke:none;stroke-width:3.365;stroke-linecap:round;stroke-linejoin:round;stroke-dasharray:none;paint-order:stroke fill markers"
       id="path4"
       cx="100.58339"
       cy="45.149532"
       r="2.7670805" /></g></svg>
