<?xml version="1.0" encoding="UTF-8" standalone="no"?>
<!-- Created with Inkscape (http://www.inkscape.org/) -->

<svg
   width="210mm"
   height="297mm"
   viewBox="0 0 210 297"
   version="1.1"
   id="svg1"
   xml:space="preserve"
   inkscape:version="1.3.1 (91b66b0783, 2023-11-16, custom)"
   sodipodi:docname="bonhomme_flame.svg"
   inkscape:export-filename="bonhomme_flame.png"
   inkscape:export-xdpi="96"
   inkscape:export-ydpi="96"
   xmlns:inkscape="http://www.inkscape.org/namespaces/inkscape"
   xmlns:sodipodi="http://sodipodi.sourceforge.net/DTD/sodipodi-0.dtd"
   xmlns="http://www.w3.org/2000/svg"
   xmlns:svg="http://www.w3.org/2000/svg"><sodipodi:namedview
     id="namedview1"
     pagecolor="#ffffff"
     bordercolor="#000000"
     borderopacity="0.25"
     inkscape:showpageshadow="2"
     inkscape:pageopacity="0.0"
     inkscape:pagecheckerboard="0"
     inkscape:deskcolor="#d1d1d1"
     inkscape:document-units="mm"
     inkscape:zoom="0.71713664"
     inkscape:cx="391.13885"
     inkscape:cy="508.27134"
     inkscape:window-width="1896"
     inkscape:window-height="1011"
     inkscape:window-x="0"
     inkscape:window-y="0"
     inkscape:window-maximized="1"
     inkscape:current-layer="layer1"
     showguides="false" /><defs
     id="defs1" /><g
     inkscape:label="Layer 1"
     inkscape:groupmode="layer"
     id="layer1"><path
       style="fill:none;stroke:#000000;stroke-width:3.365;stroke-linecap:round;stroke-linejoin:round;stroke-dasharray:none;paint-order:stroke fill markers"
       d="m 178.53313,127.23022 c 0,0 -50.04632,-2.82275 -75.79851,-45.347519 -0.60083,-0.992152 0.19736,-4.032016 0.32474,-5.083038 0.26796,-2.211117 0.35158,-2.372611 1.12321,-7.53811 1.82503,-12.217154 1.15763,-6.971555 1.97965,-15.136301 0,0 8.9469,0.461179 9.2236,-2.398136 0.27671,-2.859318 -15.19154,-24.360352 -31.947231,-23.319889 -16.750022,1.040111 -22.354705,10.821731 -22.296432,22.362732 0.05902,11.689437 5.900589,25.20069 7.572352,35.938555 -0.989653,1.187585 -9.317856,2.764124 -12.470459,4.597494 -7.881189,4.58324 -25.770004,8.575065 -36.115698,21.255572 -12.067753,14.7912 3.133415,26.59034 7.46817,29.68142 4.334756,3.09107 19.008164,12.42551 23.117069,13.86036 3.727157,1.30154 -1.434856,11.3484 -4.695891,10.30487 -3.261037,-1.04353 4.749922,7.12025 11.271993,1.51127 6.522072,-5.60898 1.426626,3.5307 1.043532,12.78326 -0.383094,9.25256 -4.749923,56.53517 -4.489039,56.9265 0.260882,0.39132 44.610975,0.26088 44.610975,0.26088 l 0.39132,-58.04644 -0.13044,58.50298 42.654349,-0.6522 -18.2618,-21.00108 c -0.0597,-8.33982 1.92542,-25.09562 2.20501,-41.8225 0.33725,-20.176 -1.00964,-40.05818 -0.96621,-41.77709 0.18805,-7.44321 -0.20113,-0.0244 0.55708,2.38726 0,0 27.11489,17.87431 52.86839,18.25908 z"
       id="path1"
       inkscape:label="path1"
       sodipodi:nodetypes="cssscssscsszsszzscccccssccc" /><path
       style="fill:none;stroke:#000000;stroke-width:3.365;stroke-linecap:round;stroke-linejoin:round;stroke-dasharray:none;paint-order:stroke fill markers"
       d="m 164.7194,139.34163 c 0,0 8.6582,1.54387 12.57144,2.45695 3.57718,0.83467 -12.57144,-2.45695 -12.57144,-2.45695 z"
       id="path2"
       sodipodi:nodetypes="csc" /><path
       style="fill:none;stroke:#000000;stroke-width:3.365;stroke-linecap:round;stroke-linejoin:round;stroke-dasharray:none;paint-order:stroke fill markers"
       d="m 104.22526,68.145127 c 0,0 -27.614254,3.187283 -30.161175,-23.981366 0,0 0.147526,25.257367 30.161175,23.981366 z"
       id="path3"
       sodipodi:nodetypes="csc" /><circle
       style="fill:#000000;stroke:none;stroke-width:3.365;stroke-linecap:round;stroke-linejoin:round;stroke-dasharray:none;paint-order:stroke fill markers"
       id="path4"
       cx="94.033188"
       cy="45.962364"
       r="2.7670805" /><path
       style="fill:#000000"
       d="m 167.38154,140.43768 c -0.41662,-0.65843 -0.6925,0.96698 4.25318,-25.05848 l 1.8036,-9.49102 -0.59227,-0.30965 c -0.32574,-0.17033 -0.69515,-0.57471 -0.82089,-0.89868 -0.20917,-0.53891 -0.13839,-0.88466 0.83174,-4.0626 1.07002,-3.505173 1.31353,-3.999401 2.11932,-4.301311 0.27715,-0.103854 2.47269,0.502221 8.81328,2.432893 l 8.44409,2.571448 0.32138,0.60381 c 0.31917,0.59966 0.31369,0.62901 -0.79674,4.26655 -1.24954,4.09325 -1.38186,4.29895 -2.79207,4.33898 l -0.70186,0.0199 -2.44091,5.68294 c -2.13071,4.96074 -2.47357,5.65503 -2.69789,5.46324 -0.14134,-0.12083 -0.77487,-0.42137 -1.40785,-0.66783 -0.70709,-0.27535 -1.1249,-0.53321 -1.08352,-0.66877 0.037,-0.12134 1.04048,-2.49728 2.22985,-5.27984 1.18939,-2.78257 2.20012,-5.18242 2.24609,-5.33298 0.0656,-0.21503 -0.21965,-0.36632 -1.32992,-0.70525 l -1.41349,-0.43149 -1.15326,3.77785 c -1.14774,3.75977 -1.15585,3.77948 -1.75707,4.09923 -0.38061,0.20258 -0.81913,0.25565 -1.18634,0.14355 -0.3672,-0.11209 -0.70132,-0.40102 -0.9039,-0.78163 -0.31983,-0.60093 -0.31586,-0.6219 0.83189,-4.38167 l 1.15326,-3.77785 -1.41349,-0.43149 c -1.03174,-0.31496 -1.43362,-0.3655 -1.48802,-0.1873 -0.041,0.13431 -1.13708,5.84918 -2.43573,12.69972 -1.29865,6.85053 -2.36721,12.47686 -2.37458,12.50294 -0.007,0.0261 0.74988,0.28046 1.68278,0.56525 0.9329,0.28478 1.70633,0.49768 1.71873,0.47313 0.0127,-0.0245 0.42955,-0.96872 0.92701,-2.09813 0.49745,-1.12944 0.95723,-2.0816 1.02172,-2.11593 0.0645,-0.0344 0.49652,0.15366 0.96038,0.4167 0.46373,0.26351 1.1085,0.50041 1.43281,0.52647 0.56122,0.045 0.57669,0.0717 0.32016,0.5526 -0.1482,0.27791 -1.33264,3.00687 -2.63199,6.0644 -2.17496,5.11795 -2.40671,5.5827 -2.92013,5.85597 -0.53157,0.28292 -0.69435,0.2551 -3.47693,-0.59433 -2.7782,-0.8481 -2.93729,-0.91967 -3.29251,-1.48107 z m 5.65152,-2.36161 c 0.81666,-1.92929 0.86477,-1.76607 -0.65754,-2.23079 l -1.34549,-0.41073 -0.1832,1.02571 c -0.1008,0.56414 -0.25366,1.25917 -0.33978,1.5445 -0.15262,0.5068 -0.13086,0.52662 0.94736,0.85577 l 1.10394,0.337 z m 15.67207,-32.68253 0.51779,-1.69618 -6.40779,-1.95609 -6.40778,-1.956102 -0.51779,1.696172 -0.51779,1.69619 6.40778,1.95609 6.40779,1.9561 z m -9.83904,20.70542 c -0.4723,-0.88737 -0.28957,-1.5965 0.52286,-2.02889 1.53045,-0.81459 2.99941,1.05411 1.91793,2.43987 -0.23671,0.30331 -1.28566,0.54387 -1.75148,0.40167 -0.16861,-0.0515 -0.47879,-0.41715 -0.68928,-0.81264 z m -4.624,-33.564395 c -0.19868,-0.285488 -0.34963,-0.749566 -0.33542,-1.031285 0.0297,-0.589384 0.74313,-1.411187 1.25635,-1.447232 0.18745,-0.01314 4.86176,1.35616 10.38737,3.042956 11.1735,3.410928 10.71972,3.213013 10.57183,4.60969 -0.0568,0.536149 -0.18977,0.705556 -0.81567,1.038665 l -0.74784,0.398048 -9.9777,-3.045884 c -9.6658,-2.950673 -9.98899,-3.062087 -10.33892,-3.564958 z m 6.9962,-4.187736 c -6.47649,-3.665566 -9.38347,-8.029495 -8.88985,-13.345356 0.17684,-1.904315 0.49646,-2.965178 1.47571,-4.898163 1.16769,-2.304838 2.66,-4.194929 6.06352,-7.679771 4.35182,-4.455812 6.05784,-6.731162 7.4506,-9.936976 1.15586,-2.660543 1.35688,-5.626355 0.50265,-7.416262 -0.53902,-1.129414 -0.63899,-1.568134 -0.47773,-2.096399 0.16971,-0.555931 1.22891,-1.071222 1.82678,-0.888709 1.15431,0.352373 7.32502,6.790841 10.12379,10.563069 l 0.99832,1.34555 -0.81005,0.39989 c -0.44553,0.21994 -1.05125,0.582585 -1.34604,0.805882 l -0.53599,0.40599 -1.37182,-1.771703 c -1.57838,-2.038486 -4.41452,-5.245222 -4.56717,-5.163968 -0.0568,0.03028 -0.21352,0.745688 -0.34806,1.58986 -0.17357,1.088775 -0.46263,2.04269 -0.99466,3.282293 -1.53137,3.568055 -3.57258,6.350656 -7.97608,10.873049 -1.70108,1.747011 -3.57938,3.838867 -4.174,4.648572 -2.93376,3.994954 -3.51656,7.488465 -1.79831,10.779851 0.61563,1.179266 2.02525,2.983453 2.24119,2.868522 0.0459,-0.02445 0.10087,-0.548948 0.12211,-1.165543 0.0776,-2.254115 1.43987,-4.452309 4.20596,-6.786933 0.9194,-0.775966 2.01759,-1.772771 2.44042,-2.215103 1.84171,-1.926622 2.70959,-4.007755 2.2091,-5.297261 -0.33261,-0.856951 -0.0643,-1.657982 0.68994,-2.059404 0.85384,-0.454464 1.46727,-0.192148 3.02332,1.292841 2.17488,2.075563 3.52712,3.849933 4.84785,6.361198 1.85238,3.522198 2.34257,6.261357 1.65586,9.253022 -0.41221,1.795846 -0.31088,1.775902 1.60061,-0.315029 1.43553,-1.570291 2.61757,-3.395869 3.32705,-5.138422 1.25875,-3.091617 1.19368,-7.543517 -0.16918,-11.573978 -0.51663,-1.527877 -0.54362,-1.750317 -0.21277,-1.753971 0.20841,-0.0023 0.85295,-0.281803 1.43232,-0.621114 0.57937,-0.339312 1.09285,-0.526698 1.14106,-0.41642 2.3775,5.438835 2.51591,11.873092 0.35438,16.474747 -1.91281,4.072131 -5.1692,7.377061 -10.32989,10.483854 -3.17719,1.912711 -3.99357,2.072811 -4.7833,0.93804 -0.54647,-0.785235 -0.24728,-1.484417 1.32474,-3.095828 1.63979,-1.680863 2.45948,-2.979913 3.0023,-4.758094 1.01466,-3.323827 0.0473,-7.011115 -2.82117,-10.753777 -0.49652,-0.64783 -0.9556,-1.194001 -1.02018,-1.213715 -0.0646,-0.01971 -0.17669,0.158362 -0.24915,0.395723 -0.45982,1.506256 -2.56162,4.037174 -5.18996,6.24957 -1.9982,1.681977 -2.68846,2.550089 -3.12234,3.926901 -0.53089,1.684639 -0.0963,3.129077 1.52533,5.069631 0.65769,0.787037 0.7138,0.957131 0.55151,1.671787 -0.15228,0.670786 -0.27922,0.833829 -0.80861,1.039336 -0.59545,0.231107 -1.31185,0.111502 -2.14016,-0.357294 z m 18.80033,-28.913486 c -0.23727,-0.351448 -0.26812,-0.681225 -0.11166,-1.193781 0.26559,-0.869999 1.012,-1.236272 1.94125,-0.952601 0.83019,0.253431 1.22239,0.982696 0.97114,1.805751 -0.37711,1.235347 -2.05858,1.439854 -2.80073,0.340631 z"
       id="path5" /></g></svg>
